<svg xmlns="http://www.w3.org/2000/svg" width="499.125" height="253.944" viewBox="0 0 499.125 253.944">
  <g id="Group_32" data-name="Group 32" transform="translate(-28.96 -85.361)">
    <path id="Path_20" data-name="Path 20" d="M195.845,249.645a16.515,16.515,0,0,0-1.079-4.133,1.87,1.87,0,0,0-.951-1.171,1.959,1.959,0,0,0-.944-.011l-4.845.741a1.857,1.857,0,0,0-1.105.43c-.631.664-.01,1.732-.029,2.648a2.489,2.489,0,0,1-1.928,2.142,7.29,7.29,0,0,1-3.064-.038l-6.774-1.053a11.169,11.169,0,0,0,5.125-3.42c.891-1.056,1.366-3.028.077-3.528a3.163,3.163,0,0,0-1.177-.094c-3.069.024-5.484-2.539-8.358-3.618a9.241,9.241,0,0,0-10.4,3.1l3.609.174a1.6,1.6,0,0,1,.961.256c.791.65-.192,1.9-.081,2.915.145,1.322,1.9,1.6,3.223,1.738s3,1.209,2.365,2.376c-6.65,2.291-13.418-4.478-20.4-3.645a41.455,41.455,0,0,0-5.163,1.342c-10.542,2.667-21.442-4.449-32.211-2.942a40.9,40.9,0,0,0-7.031,1.854,9.478,9.478,0,0,0-4.06,2.118c-1.065,1.116-1.47,3.025-.461,4.192a23.594,23.594,0,0,1-8.268-.786,4.632,4.632,0,0,1,2.382,4.083,49.057,49.057,0,0,0-12.568,3.832,21.167,21.167,0,0,0,2.6,3.465l-5.5,3.532a3.137,3.137,0,0,1,1.737,4.582c1.926-.857,3.119-3.073,5.178-3.522a6.979,6.979,0,0,1,4,.776,6.251,6.251,0,0,0,4.011.632c1.325-.389,2.3-2.107,1.46-3.2a68.548,68.548,0,0,1,17.411-2.72,2.183,2.183,0,0,1,1.319.25c.768.533.566,1.683.524,2.616s.686,2.16,1.52,1.739c-.981.851-.142,2.453.8,3.348s2.076,2.13,1.5,3.294c-.15.3-.406.547-.55.853-.427.9.251,1.96,1.051,2.561a8.962,8.962,0,0,1,2.336,1.853c.556.832.3,2.289-.691,2.405l-2.825-3.587a7.355,7.355,0,0,0-1.908,3.617,7.589,7.589,0,0,1,.938,10.381c-1.282,1.506-3.1,2.421-4.7,3.6s-3.063,2.847-3.059,4.824c.007,3.416-.272,6.59,1.008,9.758a150.316,150.316,0,0,0,8.16,17.025c.807,1.444,1.851,3.026,3.486,3.275q-3.1-7.547-5.582-15.329c1.077,0,2.323.09,2.954.963a6.124,6.124,0,0,1,.573,2.583,8,8,0,0,0,1.02,2.4l9.87,17.581c.818,1.457,1.757,3.022,3.32,3.612,1,.377,2.156.306,3.077.85.721.426,1.207,1.182,1.942,1.583,2.079,1.134,4.97-1.041,6.913.313a19.461,19.461,0,0,1,1.421,1.446c1.794,1.554,4.738.514,6.81,1.674,1.335.747,2.027,2.241,2.739,3.6,1.784,3.392,4.67,6.715,8.493,6.985a23.673,23.673,0,0,1,3.6.124c1.174.267,2.329,1.291,2.141,2.48-.323,2.038.684,4.27.414,6.316-.493,3.727-5.779,5.364-6.233,9.1a21.108,21.108,0,0,1-.138,2.46c-.238.98-.975,1.778-1.236,2.753-.5,1.846.827,3.684,2.28,4.926s3.186,2.313,3.981,4.052c.84,1.838.427,3.981.7,5.983.6,4.371,4.371,7.611,8.256,9.7A8.625,8.625,0,0,1,183.042,409c1,1.441.9,3.341,1.234,5.063.818,4.218,4.368,7.693,4.469,11.988.072,3.053-1.625,5.822-2.639,8.7a20.3,20.3,0,0,0,1.657,16.832,26.954,26.954,0,0,1,2.2,3.876c.957,2.477.647,5.293,1.529,7.8,1.167,3.311,4.373,6.046,4.066,9.544,1.456,3.023,4.67,4.508,7.9,5.408l5.793,1.613a7.443,7.443,0,0,0,3.4.4,2.55,2.55,0,0,0,2.178-2.312c-2.841-.641-5.773-1.322-8.114-3.053s-3.946-4.814-3.057-7.587c.412-1.286,1.288-2.771.455-3.833-.477-.608-1.35-.767-1.888-1.322-.839-.866-.551-2.32.052-3.364A11.359,11.359,0,0,0,204,455.585a3.3,3.3,0,0,0-1.544-3.428,8.19,8.19,0,0,0,2.867-1.84,2.8,2.8,0,0,0,.509-3.168c1.761.223,3.841.333,5-1.015a4.476,4.476,0,0,0,.5-4.055,17.315,17.315,0,0,1-1-4.118,75.066,75.066,0,0,0,12.177-.413,7.9,7.9,0,0,0-3.7-4.636c1.83-.31,3.5-2.5,4.076-4.264a10.972,10.972,0,0,0,.073-5.506,2.955,2.955,0,0,1-.055-1.443,2.811,2.811,0,0,1,1.448-1.4l9.084-5.217a5.292,5.292,0,0,0,1.453-1.072c.952-1.118.811-2.806.323-4.191a21.049,21.049,0,0,1-1.456-4.143c-.561-4.355,4.1-7.48,5.674-11.579a17.448,17.448,0,0,0,.863-5.077c.128-1.846.138-3.991-1.28-5.181-1.359-1.141-3.482-.886-4.9-1.947-1.3-.973-1.754-2.862-3.178-3.647-1.293-.713-2.915-.26-4.354-.6-2.533-.591-4.127-3.51-6.713-3.78-1.46-.152-3.111.561-4.307-.289-1.054-.749-1.1-2.254-1.3-3.532a9.863,9.863,0,0,0-7.96-7.986c-1.5-.241-3.143-.15-4.423-.977-1.3-.837-1.891-2.405-2.909-3.565-1.641-1.869-4.226-2.533-6.647-3.1L182.46,352.1c-1.748-.411-4-.629-4.94.9a7.079,7.079,0,0,0-.584,1.838,5.692,5.692,0,0,1-5.352,4.029,6.33,6.33,0,0,0-3.733-2.888,23.267,23.267,0,0,1-3.02-.719,4.242,4.242,0,0,1-1.841-5.885,5.28,5.28,0,0,0-.9-6.352,8.571,8.571,0,0,0-6.343-1.716c-.588-1.283.4-2.731,1.455-3.664s2.347-1.85,2.577-3.242c.363-2.191-2.432-3.855-4.555-3.2s-3.477,2.715-4.372,4.747a13.977,13.977,0,0,1-1.761,3.377,3.46,3.46,0,0,1-3.35,1.371c-1.748-.447-2.423-2.523-2.809-4.285a27.865,27.865,0,0,1-.932-7.178A9.386,9.386,0,0,1,144.7,322.7c2.905-2.667,7.362-2.406,11.282-1.98a2.866,2.866,0,0,1,.294-3.785,4.3,4.3,0,0,1,3.9-.958,5.375,5.375,0,0,1,3.022,1.807c1.114,1.358,1.431,3.192,2.273,4.734s2.736,2.857,4.286,2.03c1.339-.715,1.551-2.571,1.218-4.051s-1.041-2.92-.92-4.433c.23-2.886,3.222-4.624,5.863-5.812s5.664-2.787,6.082-5.652a5.153,5.153,0,0,1,.313-1.643,3.222,3.222,0,0,1,1.182-1.112c7.706-5.092,15.539-10.247,24.346-13.029.458-.145.512.016.979-.1.654-.378.22-1.423-.406-1.844s-1.464-.744-1.623-1.482c-.117-.542.2-1.075.286-1.624a2.027,2.027,0,0,0-2.661-2.054c-.707-.937.692-2.026,1.824-2.337a49.54,49.54,0,0,1,10.408-1.7,1.875,1.875,0,0,1,1.184.2,1.416,1.416,0,0,1,.1,1.933,11.374,11.374,0,0,1-1.593,1.446,4.348,4.348,0,0,0-1.128,4.373c1.838.935,3.835,1.9,5.87,1.568s3.842-2.616,2.885-4.442c-.891-1.7-3.567-2.084-4.027-3.948-.539-2.182,2.551-4.123,1.855-6.261-.3-.936-1.238-1.487-1.954-2.163a5.87,5.87,0,0,1-1.284-6.509,7.405,7.405,0,0,1-6.495-2.032c-1.553-1.568-2.793-4.041-5-3.971-2.024.064-3.768,2.426-5.661,1.706-.466-.177-.957-.538-1.408-.327a1.164,1.164,0,0,0-.525.872c-.481,2.3.346,4.92-.907,6.907-1.364,2.163-4.519,2.462-6.172,4.412-.9,1.059-1.245,2.485-2.07,3.6s-2.576,1.826-3.566.853a4.915,4.915,0,0,0-1.335-5.977,13.112,13.112,0,0,0-2.95-1.435,17.5,17.5,0,0,1-3.3-1.836,3.246,3.246,0,0,1-1.21-1.294,2.95,2.95,0,0,1,.083-2.047,8.369,8.369,0,0,1,6.66-5.52c1.318-.179,2.853-.116,3.725-1.121.462-.531.7-1.335,1.374-1.551a2.026,2.026,0,0,1,1.268.156l4.921,1.732a3.453,3.453,0,0,0,1.753.29,1.188,1.188,0,0,0,1.028-1.249c-.157-.817-1.415-1.209-1.3-2.034a1.358,1.358,0,0,1,.412-.692,17.592,17.592,0,0,1,13.953-5.51c.621,1.02-.361,2.228-1.178,3.1s-1.474,2.427-.486,3.1a2.71,2.71,0,0,0,1.31.3,11.44,11.44,0,0,1,3.487,1.058q2.551,1.11,5,2.429a6.343,6.343,0,0,1,.126-3.222,2.182,2.182,0,0,1,2.584-1.406c.978.378,1.479,1.673,2.521,1.791,1.389.158,1.938-1.894,1.357-3.167s-1.729-2.337-1.825-3.733c-.065-.941.293-2.108-.458-2.678a2.046,2.046,0,0,0-.887-.311l-18.771-3.454c-1.115-.205-2.725-.048-2.775,1.084-.028.632.537,1.257.287,1.839-.267.62-1.144.564-1.782.783a2.436,2.436,0,0,0-1.393,2.56,7.125,7.125,0,0,0,1.176,2.885C198.915,250.249,197.066,250.155,195.845,249.645Z" transform="translate(-50.831 -140.987)" fill="#0a002b"/>
    <path id="Path_21" data-name="Path 21" d="M282.569,228.718a6.079,6.079,0,0,0-6.677,2,1.337,1.337,0,0,0-.31,1.409c.371.632,1.316.382,2.013.156a5.067,5.067,0,0,1,3.18-.076c.654.225,1.24.622,1.9.838a1.91,1.91,0,0,0,1.948-.285,2.536,2.536,0,0,0,.48-1.82,1.464,1.464,0,0,0-.373-1.2,1.912,1.912,0,0,0-.862-.255,2.97,2.97,0,0,1-1.738-1.016" transform="translate(-152.532 -135.994)" fill="#0a002b"/>
    <path id="Path_22" data-name="Path 22" d="M302.573,225.125a1.546,1.546,0,0,0-1.495,2.178,6.267,6.267,0,0,0,2.5.163,2.136,2.136,0,0,0,1.747-1.6,4.021,4.021,0,0,1-2.847-.544" transform="translate(-165.768 -134.286)" fill="#0a002b"/>
    <path id="Path_23" data-name="Path 23" d="M344.686,216.357a28.746,28.746,0,0,0-6.408,2.177,4.814,4.814,0,0,1,3.075,4.836,2.519,2.519,0,0,0,.029,1.2c.235.571.917.785,1.517.931a10,10,0,0,0,3.327.425,3.389,3.389,0,0,0,2.754-1.683,11.987,11.987,0,0,1,.573-1.354c1.437-2.189,5.706.458,7.249-1.658.544-.745.494-1.867,1.2-2.457a2.7,2.7,0,0,1,1.236-.472,86.8,86.8,0,0,1,9.389-1.337c1.493-.13,3.44-.666,3.452-2.165a26.007,26.007,0,0,0-16.589,2.232c-1.849.926-4.3,2.875-6.076,1.647-.667-.46-.634-1.7-1.552-2.215A4.68,4.68,0,0,0,344.686,216.357Z" transform="translate(-185.172 -128.665)" fill="#0a002b"/>
    <path id="Path_24" data-name="Path 24" d="M388.91,219.492l2.64.507a3.421,3.421,0,0,0-3.56,3.708c2.472.826,5.168.022,7.773.132s5.635,1.97,5.19,4.539c-.134.777-.583,1.553-.35,2.306a8.579,8.579,0,0,0,.892,1.388,3.109,3.109,0,0,1-.581,3.214c-.691.921-1.62,1.655-2.227,2.634-1.509,2.433-.652,5.579.247,8.3a7.315,7.315,0,0,0,1.407,2.809c1.332,1.416,3.5,1.539,5.446,1.567,1.415.021,3.035-.049,3.93-1.145,1.168-1.431.351-3.664,1.12-5.343.7-1.525,2.478-2.18,4.09-2.644a61.2,61.2,0,0,0,8.755-2.857c3.467-1.595,6.707-4.08,10.518-4.285a14.437,14.437,0,0,0,3.194-.224,2.429,2.429,0,0,0,1.93-2.251c-.067-.912-.839-1.582-1.442-2.27s-1.077-1.745-.522-2.473l9.988-1.866c-.708-1.93-1.26-4.471.367-5.727.587-.453,1.373-.634,1.873-1.182a2.423,2.423,0,0,0-.56-3.336,6.415,6.415,0,0,0-3.572-1.083,95.852,95.852,0,0,0-13.172.117l-25.733,1.411c-1.727.095-3.72-.05-5.3.539-1.341.5-2.294,1.414-3.827,1.736C394.587,218.3,391.471,217.9,388.91,219.492Z" transform="translate(-211.002 -128.361)" fill="#0a002b"/>
    <path id="Path_25" data-name="Path 25" d="M487.237,267.1a1.062,1.062,0,0,0-.769.174.97.97,0,0,0-.25.593,3.914,3.914,0,0,0,.568,2.8,2.743,2.743,0,0,0,2.511,1.2c1.189-.152,2.065-1.166,3.158-1.661,1.685-.762,8.839-1.95,3.89-4.624-1.705-.921-2.807-.108-4.152.5A9.446,9.446,0,0,1,487.237,267.1Z" transform="translate(-262.029 -155.102)" fill="#0a002b"/>
    <path id="Path_26" data-name="Path 26" d="M577.015,220.759a2.825,2.825,0,0,0-1.375,1.2,1.207,1.207,0,0,0,.453,1.6,1.8,1.8,0,0,0,.674.107l2.35.07c1,.03,2.245.242,2.513,1.2.2.714-.247,1.632.291,2.142a1.514,1.514,0,0,0,.8.312,5.447,5.447,0,0,0,2.367.076c1.71-.459.811-1.5,1.35-2.431.824-1.422.681-.561,2.133-1.376,1.072-.6,2.457-1.693,1.563-3.227C588.577,217.769,579.311,219.614,577.015,220.759Z" transform="translate(-308.461 -131.137)" fill="#0a002b"/>
    <path id="Path_27" data-name="Path 27" d="M663.852,219.521l-1.364.182a54.958,54.958,0,0,0-9.134,1.749,15.2,15.2,0,0,0,4,.982,12.287,12.287,0,0,1,2.241.319c1.309.39,2.628,1.4,3.892.88.784-.32,1.04-1.136,1.689-1.568.448-.3,2.149-.782,2.339-1.084C669.052,218.542,665.033,219.364,663.852,219.521Z" transform="translate(-348.923 -131.24)" fill="#0a002b"/>
    <path id="Path_28" data-name="Path 28" d="M680.895,231.344a25.582,25.582,0,0,0-5.035,3.687,3.048,3.048,0,0,0-1.238,2.23c.077,1.167,1.32,1.844,2.4,2.3l4.362,1.847c.529-.746.045-1.775-.5-2.508s-1.2-1.581-.955-2.463c.276-1.006,1.5-1.349,2.532-1.523,1.677-.282,6.2-.26,5.656-2.962C687.471,228.768,682.577,230.4,680.895,231.344Z" transform="translate(-359.975 -136.861)" fill="#0a002b"/>
    <path id="Path_29" data-name="Path 29" d="M685.538,588.106a4.162,4.162,0,0,0,.264,3.668,3.716,3.716,0,0,0,3.814,1.318,6.872,6.872,0,0,0,3.541-2.277,12.2,12.2,0,0,0,2.037-3.124,24.389,24.389,0,0,0,1.51-5.524l1.354-7.11c.3-1.589.291-6.461-2.63-4.873-.8.434-2.645,3.857-3.481,4.828-1.507,1.75-1.706,3.448-2.5,5.567C688.454,583.233,686.457,585.446,685.538,588.106Z" transform="translate(-365.495 -313.458)" fill="#0a002b"/>
    <path id="Path_30" data-name="Path 30" d="M1002.515,682.167a21.3,21.3,0,0,1-2.775-1.321,23.392,23.392,0,0,0-1.407,7.668l6.539-3.7c.984-.557,2.1-1.33,2.078-2.46a.778.778,0,0,0-.362-.708.881.881,0,0,0-.458-.054,11.078,11.078,0,0,0-2.769.89,3.379,3.379,0,0,1-2.824.015" transform="translate(-528.215 -371.134)" fill="#0a002b"/>
    <path id="Path_31" data-name="Path 31" d="M1067.407,685.7a14.152,14.152,0,0,0-2.1.753c-1.5.763-2.522,2.214-3.872,3.22a15.365,15.365,0,0,1-4.375,2,1.049,1.049,0,0,0,.245,1.546,3.033,3.033,0,0,0,1.727.388,9.12,9.12,0,0,0,4.647-.716,14.652,14.652,0,0,0,2.188-1.737,23.178,23.178,0,0,1,5.508-3.115,6.322,6.322,0,0,0,1.92-1.148c1.214-1.2,1.3-3.04-.451-3.448C1071.432,683.117,1068.752,685.262,1067.407,685.7Z" transform="translate(-558.609 -372.468)" fill="#0a002b"/>
    <path id="Path_32" data-name="Path 32" d="M1104.343,662.6a5.455,5.455,0,0,0-1.669-4.47,8.506,8.506,0,0,1-.994,4.761c-.66.97-1.694,1.625-2.417,2.549s-1.043,2.388-.2,3.2a3.177,3.177,0,0,0,1.883.648c1.688.2,3.641.309,4.825-.91.646-.665.96-1.651,1.748-2.14a2.127,2.127,0,0,0,.767-.549c.325-.517-.192-1.2-.773-1.385s-1.223-.1-1.808-.276-1.121-.835-.821-1.367" transform="translate(-580.306 -359.331)" fill="#0a002b"/>
    <path id="Path_33" data-name="Path 33" d="M1025.564,535.625a7.586,7.586,0,0,1-2.707.16c-1.5-.276-2.672-1.409-3.885-2.337a17.135,17.135,0,0,0-10.012-3.5c-3.3-.062-6.623.831-9.86.208a3.889,3.889,0,0,0,2.292,2.583c1.074.524,2.259.788,3.338,1.3a7.97,7.97,0,0,1,3.861,4.017,11.346,11.346,0,0,0,1.093,2.4c1.076,1.448,3.116,1.766,4.916,1.647,2.347-.154,4.8-.829,6.982.045,1.67.669,2.866,2.131,4.26,3.268s3.359,1.981,4.961,1.16a8.2,8.2,0,0,1-5.674-7.891c1.571.144,6.095.089,5.851-2.58C1030.775,533.849,1026.914,535.381,1025.564,535.625Z" transform="translate(-528.615 -292.709)" fill="#0a002b"/>
    <path id="Path_34" data-name="Path 34" d="M960.658,571.711c.279-1.53,1.8-2.881,1.329-4.361A2.684,2.684,0,0,0,959.4,565.8c-1.075-.025-2.131.295-3.206.325a15.677,15.677,0,0,0-2.1.03c-2.134.351-3.449,2.587-5.459,3.382a33.167,33.167,0,0,1-3.868.725c-2.887.759-4.713,3.486-6.73,5.685a24.02,24.02,0,0,1-12.192,7.11c-1.641.38-3.405.623-4.71,1.689-1.728,1.412-2.153,3.831-2.537,6.029a99.571,99.571,0,0,1-4.847,17.795l6.854.875a9.316,9.316,0,0,0,3.909-.057,11.349,11.349,0,0,0,2.571-1.37,25.668,25.668,0,0,1,10.028-3.62,10.648,10.648,0,0,1,5.361.376,4.985,4.985,0,0,1,3.271,3.986,4.21,4.21,0,0,1,4.208,1.023,7.316,7.316,0,0,1,2.009,4.011c.181.938.361,2.061,1.231,2.455.71.321,1.524-.025,2.3-.087,2.635-.211,4.822,2.862,7.412,2.333,2.778-.567,3.46-4.727,6.169-5.561,1.557-.478,3.74.1,4.485-1.344.657-1.276-.654-2.749-.519-4.177.167-1.759,2.242-2.506,3.841-3.257a11.98,11.98,0,0,0,5.46-15.487c-1.584-3.244-4.7-5.8-5.275-9.361-.443-2.742.638-5.939-1.11-8.1-.889-1.1-2.395-1.7-2.924-3.014a14.869,14.869,0,0,1-.379-2.631c-.179-.871-.939-1.782-1.8-1.557-2.5.655-3.294,8.369-4.631,10.243A3.1,3.1,0,0,1,960.658,571.711Z" transform="translate(-484.255 -310.392)" fill="#0a002b"/>
    <path id="Path_35" data-name="Path 35" d="M911.481,547.508a4.02,4.02,0,0,0-2.6-.133c-.818.342-1.295,1.542-.639,2.138a88.122,88.122,0,0,1,15.388.3c5.864.8,11.668,2.793,17.558,2.207a89.359,89.359,0,0,0-10.243-2.377l-5.766-1.1a44.571,44.571,0,0,0-4.682-.723C917.206,547.546,914.716,548.415,911.481,547.508Z" transform="translate(-481.232 -301.678)" fill="#0a002b"/>
    <path id="Path_36" data-name="Path 36" d="M920.7,503.916c-.426-.036-.954-.066-1.175.3-.211.35.031.813-.083,1.205-.155.536-.857.673-1.411.6a2.7,2.7,0,0,0-1.642.019,1.392,1.392,0,0,0-.538,1.581,4.071,4.071,0,0,0,.949,1.513,15.464,15.464,0,0,0,2.463,2.47c1.764,1.3,4.155,1.93,5.266,3.821a2.535,2.535,0,0,0,.7.946,1.955,1.955,0,0,0,1.8-.182l2.013-.92a2.288,2.288,0,0,0,.941-.64,2.069,2.069,0,0,0-.209-2.184,3.752,3.752,0,0,1-.8-2.139c.148-1.374,1.915-1.9,2.641-3.076s.256-2.713.34-4.1c.1-1.627,1.121-3.742-.524-4.958-1.4-1.033-2.733-.078-3.737,1.062C925.593,501.637,924.592,504.242,920.7,503.916Z" transform="translate(-485.314 -275.965)" fill="#0a002b"/>
    <path id="Path_37" data-name="Path 37" d="M951.066,454.884c.688,1.316,2.12,2.1,2.87,3.383.813,1.389.72,3.184,1.6,4.531.9,1.382,2.724,2.115,3.231,3.686.554,1.716-.7,3.8.3,5.3a2.224,2.224,0,0,0,3.263.3,2.394,2.394,0,0,0-.1-3.34c-.593-.541-1.444-.774-1.939-1.406a2.948,2.948,0,0,1-.5-1.223,8.005,8.005,0,0,1,.126-3.837,1.707,1.707,0,0,0,.1-1c-.223-.648-1.1-.694-1.716-.994-1.4-.682-1.364-2.656-1.12-4.192-.163,1.023-3.807-.717-4.188-1.3-.758-1.151-.345-3.372-.5-4.644A3.616,3.616,0,0,0,951.066,454.884Z" transform="translate(-503.457 -251.236)" fill="#0a002b"/>
    <path id="Path_38" data-name="Path 38" d="M871.446,500.851c-.673-.753-1.686-1.541-2.587-1.087a1.638,1.638,0,0,0-.608,2.02,4.445,4.445,0,0,0,1.467,1.749,51.2,51.2,0,0,1,5.542,4.75c2.934,3.224,4.488,7.574,7.678,10.544a4.306,4.306,0,0,0,2.418,1.309,1.879,1.879,0,0,0,2.08-1.436,2.738,2.738,0,0,0-.965-2.014c-1.239-1.348-2.6-2.589-3.766-4a3.36,3.36,0,0,1-.963-2.011c-.006-.758.686-1.552,1.421-1.364-.894-.229-1.557-1.717-2.868-2-1.1-.234-1.361.445-2.666-.115C875.141,506.134,873.189,502.8,871.446,500.851Z" transform="translate(-460.548 -276.953)" fill="#0a002b"/>
    <path id="Path_39" data-name="Path 39" d="M982.5,348.577a20.588,20.588,0,0,1-2.1-.751c-1.848-.555-4.292.8-4.046,2.716.164,1.271,1.347,2.128,2,3.231.969,1.635.711,3.709.2,5.54a4.328,4.328,0,0,1-.7,1.576,5.338,5.338,0,0,1-1.656,1.191,22.141,22.141,0,0,0-6.479,5.5,1.585,1.585,0,0,0-.391.738c-.088.646.561,1.116.928,1.655.815,1.2.226,2.807.307,4.253a1.2,1.2,0,0,0,.507,1.055c.492.25,1.074-.174,1.34-.657.884-1.6.218-4.172,1.876-4.945.314-.146.694-.208.9-.483.332-.437.012-1.084.18-1.607.253-.785,1.326-.82,2.149-.785a12.2,12.2,0,0,0,4.19-.558,2.79,2.79,0,0,0,1.387-.8,3.018,3.018,0,0,0,.353-2.285A30.976,30.976,0,0,0,979.792,352c1.457.186,3.042.347,4.3-.412.7-.425,1.548-1.7,1.2-2.562C984.738,347.654,983.74,348.806,982.5,348.577Z" transform="translate(-513.138 -197.992)" fill="#0a002b"/>
    <path id="Path_40" data-name="Path 40" d="M543.136,383.341a5.611,5.611,0,0,1,.039,2.82A1.929,1.929,0,0,1,541,387.538c-.706-.214-1.114-.924-1.616-1.466-2.79-3.012-9.083-1.268-10.806-4.994-.7-1.521-.225-3.342-.705-4.947a4.4,4.4,0,0,0-4.46-3.029,9.161,9.161,0,0,0-2.566.766,64.7,64.7,0,0,1-17,4.253,13.971,13.971,0,0,0-3.267.594c-2.4.869-4.032,3.089-5.2,5.356s-2.025,4.72-3.587,6.733c-1.641,2.116-3.941,3.6-6.087,5.2a6.21,6.21,0,0,0-2.008,2.1,6.583,6.583,0,0,0-.4,3.127l.439,12.892a11.644,11.644,0,0,0,.869,4.86c.927,1.853,2.758,3.067,4.028,4.7a9.213,9.213,0,0,1,1.911,5.884c-.027.853-.112,1.863.553,2.4a2.431,2.431,0,0,0,1.359.391l17.44,1.427c3.068.251,6.468.664,8.47,3,.945,1.1,1.7,2.689,3.152,2.808a11.719,11.719,0,0,0,1.847-.253c1.567-.124,2.944,1.065,3.813,2.375a10.539,10.539,0,0,1,1.693,6.763c-.142,1.495-.606,2.947-.706,4.445-.38,5.7,4.452,10.652,4.546,16.364.055,3.36-1.54,6.5-3.095,9.478,2.51,3.8.455,8.865,1.454,13.309.948,4.217,4.464,7.518,5.34,11.75.4,1.937.424,4.322,2.133,5.32a4.863,4.863,0,0,0,2.413.483,31.814,31.814,0,0,0,14.488-3.3c2.113-1.048,4.3-2.613,4.671-4.943.3-1.878-.655-3.98.314-5.616,1.143-1.928,4.07-1.776,5.751-3.258,2.727-2.405.6-6.993,1.706-10.457.993-3.114,4.413-4.769,6.107-7.564a13.442,13.442,0,0,0,1.419-3.846,54.876,54.876,0,0,0,1.444-9.81,58.834,58.834,0,0,1,.444-6.009c1.828-11.353,13.051-18.955,16.695-29.861.348-1.042.511-2.429-.415-3.018a2.653,2.653,0,0,0-1.765-.185l-8.039,1.014a5.535,5.535,0,0,1-2.974-.171,1.908,1.908,0,0,1-1.088-2.456c1.365-2.473-1.443-5.6-2.691-8.133a120.021,120.021,0,0,0-11.952-19.383,1.97,1.97,0,0,1-.524-1.138l2.282.076c-.77-2.764-2.041-5.788-4.726-6.8a11.765,11.765,0,0,0-4.8-.284A70.18,70.18,0,0,1,543.136,383.341Z" transform="translate(-260.529 -211.189)" fill="#0a002b"/>
    <path id="Path_41" data-name="Path 41" d="M573.325,244.5c1.21,1.285,2.566,2.647,4.316,2.871,3.092.4,5.315-2.8,6.731-5.579a2.726,2.726,0,0,0,2.845,2.522,5.616,5.616,0,0,0,2.14-.836,42.152,42.152,0,0,1,19.97-5.162,2.157,2.157,0,0,1,1.647-2.371c1.419-.281,2.7.946,3.383,2.221s1.112,2.752,2.2,3.707,3.194.913,3.624-.469c.412-1.327-.969-2.458-2.118-3.24s-2.358-2.23-1.585-3.384c5.866-1.3,11.768-2.6,17.77-2.86a7.441,7.441,0,0,0,2.991-.515,2.325,2.325,0,0,0,1.4-2.458,6.774,6.774,0,0,1-7.069-2.666c8.328-.687,17.187-1.273,24.568,2.646.886,1.9-3.628,3.483-2.421,5.2a2.186,2.186,0,0,0,1.826.624,90.557,90.557,0,0,0,15.359-.586,20.566,20.566,0,0,1,5.586-.453c3.1.382,5.75,2.45,8.8,3.124a4.708,4.708,0,0,0,3.678-.438,2.333,2.333,0,0,0,.638-3.3c2.871-2.814,7.635-2.116,11.422-.769s7.375,3.519,11.383,3.819c2.874.215,5.789-.558,8.629-.066a53.706,53.706,0,0,1,5.19,1.591c3.3.923,6.789.728,10.215.772a71.572,71.572,0,0,1,25.506,5.068,7.584,7.584,0,0,1,2.836,1.675,2.78,2.78,0,0,1,.633,3.05L757.021,247c.791,1.556,2.836,1.822,4.5,2.359s3.384,2.371,2.385,3.8c-1.8-.573-3.431,1.226-4.34,2.882s-2.017,3.639-3.9,3.739c-1.689.09-3.732-1.348-4.833-.064a32.952,32.952,0,0,1,3.883,6.208c1.088,2.266,1.862,5.121.392,7.16a1.856,1.856,0,0,1-.992.769c-1.2.3-1.981-1.165-2.842-2.055-1.085-1.122-2.726-1.44-4.2-1.966s-3.017-1.561-3.132-3.118a6.229,6.229,0,0,1,.816-2.764,10.648,10.648,0,0,0,.809-4.776,5.424,5.424,0,0,0-1.394-3.6,2.793,2.793,0,0,0-3.585-.368c-.473.392-.851,1.02-1.465,1.043-1.084.041-1.917-1.849-2.789-1.2a2.965,2.965,0,0,1-.4,1.983c-2.6,2.264-6.6,1.306-9.959,2.106a18.694,18.694,0,0,0-4.544,1.984,2.924,2.924,0,0,0-1.3,1.09,2.011,2.011,0,0,0,.781,2.4,6.2,6.2,0,0,0,2.577.879c4.092.775,8.243,1.975,11.474,4.6s5.349,6.973,4.327,11.01l-8.069-7.71q.46,4.856.522,9.739a4.377,4.377,0,0,1-.256,1.873c-.575,1.271-2.134,1.7-3.5,1.979a2.742,2.742,0,0,0-2.1,3.513,11.456,11.456,0,0,0,2.8,4.045,7.767,7.767,0,0,1,2.344,4.275c.145,1.649-1.1,3.507-2.75,3.392a3.628,3.628,0,0,1-2.714-2.343,14.882,14.882,0,0,0-1.654-3.365c-2.428-2.92-7.881-1.669-10.056-4.782a4.919,4.919,0,0,0-1.017,4.681,2.578,2.578,0,0,1,3.157.875,21.583,21.583,0,0,1,1.716,3.134c.806,1.395,2.088,2.632,2.2,4.238a13.837,13.837,0,0,0,.031,1.823,7.369,7.369,0,0,0,1.593,2.487,7.138,7.138,0,0,1,.406,6.644,20.488,20.488,0,0,1-3.916,5.684,68.548,68.548,0,0,1-8.527,8.587,8.961,8.961,0,0,0-2.42,2.436,2.642,2.642,0,0,0,.272,3.187c-.616.031-1.721.334-2.337.365a54.3,54.3,0,0,1-.141-7.433c-2.432-1.167-5.05,1.959-4.736,4.638s2.252,4.829,3.631,7.147a8.444,8.444,0,0,1,1.422,5.615c-.337,1.943-2.072,3.736-4.037,3.565-3.125-.273-4.433-4.76-7.528-5.273a1.265,1.265,0,0,0-.815.081c-.459.252-.539.867-.565,1.39-.127,2.569-.236,5.24.767,7.609,1.467,3.465,5.257,6.376,4.462,10.054-4.283-1.991-6.51-6.794-7.521-11.408s-1.18-9.457-2.992-13.819c-1.376,1.764-4.269.306-5.526-1.545-1.192-1.754-1.926-3.784-3.083-5.562s-2.928-3.37-5.047-3.468c-2.221-.1-4.148,1.422-5.842,2.862a13.622,13.622,0,0,0-3.638,4.053c-1.185,2.383-.875,5.191-.932,7.852-.062,2.876-.671,5.911-2.632,8.016s-5.579,2.839-7.741.941a8.722,8.722,0,0,1-2.162-3.892,190.522,190.522,0,0,1-5.854-20.9c-.363,1.614-1.78,3.694-3.134,2.743a2.807,2.807,0,0,1-.722-.93c-2.525-4.28-7.2-6.848-11.928-8.387s-9.7-2.257-14.37-3.949a36.4,36.4,0,0,1-7.454-3.713,5.862,5.862,0,0,0-.358,6,4.777,4.777,0,0,0,5.39,2.256c1.038-.332,1.914-1.052,2.943-1.408s2.411-.181,2.862.811c.431.949-.22,2.1.1,3.089.492,1.51,2.769,1.626,3.566,3a2.763,2.763,0,0,1-.741,3.2,13.412,13.412,0,0,1-3.007,1.852c-3.351,1.863-5.733,5.044-8.661,7.518s-7.06,4.281-10.549,2.694c.832-4.212-4.186-7.3-5.109-11.5-.3-1.38-.146-2.846-.58-4.191-.628-1.947-2.356-3.286-3.773-4.762a18.689,18.689,0,0,1-5.126-13.6,19.084,19.084,0,0,0,0-5.183c-.395-1.689-1.793-3.324-3.526-3.247-3.958.175-8.944.469-11.021-2.9-.741-1.2-1.064-2.968.008-3.891a3.763,3.763,0,0,1,2.864-.492l8.918.877c2.086.205,4.341.374,6.13-.716s2.565-3.985.908-5.268c-1.211-.937-3.381-.887-3.733-2.377-.293-1.241,1.081-2.65.339-3.687-.532-.744-1.728-.537-2.453.02a15.725,15.725,0,0,1-2.062,1.8c-1.423.741-3.123.036-4.654-.443s-3.583-.52-4.326.9c-.83,1.59.737,3.674-.087,5.268-1.09,2.107-4.78.908-6.31,2.72-1.756,2.08,1.2,5.18.6,7.837a4.878,4.878,0,0,1-4.806-.27,4.668,4.668,0,0,1-2.018-4.347c.147-1.2.77-2.415.352-3.544a4.16,4.16,0,0,0-2.106-1.928l-8.666-4.789c-.8,1.493.213,3.343,1.485,4.464s2.865,1.965,3.7,3.441a4.516,4.516,0,0,1-1.7,5.954,1.043,1.043,0,0,1-.859.15,1.2,1.2,0,0,1-.557-.749c-1.529-3.913-3.825-7.771-7.5-9.815s-8.944-1.624-11.351,1.82c-.572.818-.955,1.75-1.453,2.615-2.646,4.594-8.318,6.77-13.618,6.627a2.7,2.7,0,0,1-1.486-.349c-.857-.592-.818-1.847-.687-2.879l.556-4.382a3.48,3.48,0,0,1,.97-2.4c.982-.774,2.4-.286,3.648-.3a4.623,4.623,0,0,0,4.2-3.239,5.211,5.211,0,0,0-1.451-5.182c-.573-.538-1.342-1.214-1.04-1.94a1.6,1.6,0,0,1,1.125-.757c2.246-.652,4.619-.823,6.827-1.593s4.35-2.344,4.873-4.623c.16-.7.233-1.545.861-1.891a2.581,2.581,0,0,1,.995-.2,4.84,4.84,0,0,0,4.152-5.046c1.058-.74,2.541-.2,3.565.591s1.928,1.826,3.174,2.165c2.322.632,4.565-1.424,6.971-1.433,1.012,0,2.06.354,3.011.011s1.541-1.308,2.282-2.018,2.04-1.143,2.724-.378l-.582-4.314a8.48,8.48,0,0,0,6.9-1.248L560.418,254a1.637,1.637,0,0,1-.7-.376c-.547-.589,0-1.508.441-2.177,1.064-1.6,1.243-4.242-.507-5.04-1.195-.545-2.566.109-3.713.749l-5.494,3.063c-.175,1.044,1.1,1.636,1.894,2.339a3.175,3.175,0,0,1-2.071,5.548,3.956,3.956,0,0,1,.706,3.354l-3.7.266a1.6,1.6,0,0,1-1.2-.234c-.4-.351-.342-.966-.433-1.487a3.227,3.227,0,0,0-2.708-2.364,9.524,9.524,0,0,0-3.785.35,2.259,2.259,0,0,1-1.627-.038,1.626,1.626,0,0,1-.644-.812,4.174,4.174,0,0,1,.84-4.007,22.247,22.247,0,0,1,3.151-2.9,18.368,18.368,0,0,0,5.462-8.471c2.035-.853,4.141-2.011,6.176-2.863a18.9,18.9,0,0,1,10.159-1.968l6.891.132a16.523,16.523,0,0,1,6.022.867,5.615,5.615,0,0,1,3.674,4.5,1.381,1.381,0,0,1-.442,1.262,1.628,1.628,0,0,1-.871.2C576.039,243.957,575.228,244.432,573.325,244.5Z" transform="translate(-276.557 -134.627)" fill="#0a002b"/>
    <path id="Path_42" data-name="Path 42" d="M516.813,307.255a2.016,2.016,0,0,0,.55-2.028,3.772,3.772,0,0,0-3.906.738,6.585,6.585,0,0,0-1.046,1.383c-.905,1.477-1.706,3.242-1.182,4.893a1.39,1.39,0,0,0,.636.87,1.672,1.672,0,0,0,.742.116,24.846,24.846,0,0,0,2.984-.184c.608-.074,1.314-.246,1.549-.812.309-.744-.439-1.585-.221-2.36a2.578,2.578,0,0,1,.637-.912,1.206,1.206,0,0,0,.376-1.012c-.088-.364-.645-.57-.845-.254" transform="translate(-274.972 -175.786)" fill="#0a002b"/>
    <path id="Path_43" data-name="Path 43" d="M529.746,295.53a8.347,8.347,0,0,0-2.7-.17,1.18,1.18,0,0,0-.576.131.962.962,0,0,0-.355.514,2.555,2.555,0,0,0,1.487,3.131,3.2,3.2,0,0,1,.922.371c.765.593.277,1.806.422,2.764.163,1.075,1.2,1.977,1.012,3.047-.15.843-1.051,1.511-.906,2.355.152.884,1.274,1.15,2.168,1.22a2.726,2.726,0,0,0,1.536-.176,2.378,2.378,0,0,0,.969-1.4,9,9,0,0,0,.453-3.387,3.213,3.213,0,0,0-.382-1.495,8.349,8.349,0,0,0-.892-1.022C531.187,299.417,532.991,296.444,529.746,295.53Z" transform="translate(-282.732 -170.768)" fill="#0a002b"/>
    <g id="Group_33" data-name="Group 33">
      <path id="Path_44" data-name="Path 44" d="M599,466.367s-131.214-75.319-187.7-61.048c0,0-119.717,12.883-133.592,41.227,0,0-38.056-118.925-51.93-122.888" transform="translate(-126.699 -185.497)" fill="none" stroke="#5ac9ff" stroke-miterlimit="10" stroke-width="2" opacity="0.8"/>
      <path id="Path_45" data-name="Path 45" d="M277.7,445.688c22-58.67,220.208-123.681,220.208-123.681-28.145,7.136-86.617,82.454-86.617,82.454S287.611,314.475,225.77,322.8c0,0,272.337,8.919,373.224,142.709" transform="translate(-126.699 -184.639)" fill="none" stroke="#5ac9ff" stroke-miterlimit="10" stroke-width="2" opacity="0.8"/>
      <circle id="Ellipse_5" data-name="Ellipse 5" cx="5.748" cy="5.748" r="5.748" transform="translate(93.323 132.413)" fill="#5ac9ff"/>
      <circle id="Ellipse_6" data-name="Ellipse 6" cx="5.748" cy="5.748" r="5.748" transform="translate(145.254 255.302)" fill="#5ac9ff"/>
      <circle id="Ellipse_7" data-name="Ellipse 7" cx="5.748" cy="5.748" r="5.748" transform="translate(365.462 131.62)" fill="#5ac9ff"/>
      <circle id="Ellipse_8" data-name="Ellipse 8" cx="5.748" cy="5.748" r="5.748" transform="translate(466.547 275.122)" fill="#5ac9ff"/>
      <circle id="Ellipse_9" data-name="Ellipse 9" cx="5.748" cy="5.748" r="5.748" transform="translate(278.845 214.074)" fill="#5ac9ff"/>
    </g>
  </g>
</svg>
