<svg xmlns="http://www.w3.org/2000/svg" width="492.6" height="282.354" viewBox="0 0 492.6 282.354">
  <g id="Group_37" data-name="Group 37" transform="translate(-3.5 -9.5)">
    <g id="Icon_feather-eye" data-name="Icon feather-eye" transform="translate(5.5 7)">
      <path id="Path_64" data-name="Path 64" d="M1.5,143.677S89.791,6,244.3,6,487.1,143.677,487.1,143.677,398.809,281.354,244.3,281.354,1.5,143.677,1.5,143.677Z" transform="translate(0 0)" fill="none" stroke="#fff" stroke-linecap="round" stroke-linejoin="round" stroke-width="7"/>
    </g>
    <g id="Group_36" data-name="Group 36" transform="translate(8.566 -304.612)">
      <path id="Path_67" data-name="Path 67" d="M2087.435,6177.631v9.545" transform="translate(-2034 -5726.728)" fill="none" stroke="#fff" stroke-linecap="round" stroke-width="5"/>
      <path id="Path_81" data-name="Path 81" d="M2087.435,6177.631v9.545" transform="translate(-1657.634 -5726.747)" fill="none" stroke="#fff" stroke-linecap="round" stroke-width="5"/>
      <path id="Path_67-2" data-name="Path 67" d="M2087.435,6177.631v19.522" transform="translate(-2021 -5731.716)" fill="none" stroke="#fff" stroke-linecap="round" stroke-width="5"/>
      <path id="Path_80" data-name="Path 80" d="M2087.435,6177.631v19.522" transform="translate(-1670.634 -5731.736)" fill="none" stroke="#fff" stroke-linecap="round" stroke-width="5"/>
      <path id="Path_67-3" data-name="Path 67" d="M2087.435,6177.631v62.246" transform="translate(-2008 -5753.078)" fill="none" stroke="#fff" stroke-linecap="round" stroke-width="5"/>
      <path id="Path_76" data-name="Path 76" d="M2087.435,6177.631v62.246" transform="translate(-1683.634 -5753.098)" fill="none" stroke="#fff" stroke-linecap="round" stroke-width="5"/>
      <path id="Path_67-4" data-name="Path 67" d="M2087.435,6177.63v62.244" transform="translate(-1995 -5753.077)" fill="none" stroke="#fff" stroke-linecap="round" stroke-width="5"/>
      <path id="Path_77" data-name="Path 77" d="M2087.435,6177.63v62.244" transform="translate(-1696.634 -5753.097)" fill="none" stroke="#fff" stroke-linecap="round" stroke-width="5"/>
      <path id="Path_67-5" data-name="Path 67" d="M2087.435,6177.633v85.053" transform="translate(-1982 -5764.48)" fill="none" stroke="#fff" stroke-linecap="round" stroke-width="5"/>
      <path id="Path_78" data-name="Path 78" d="M2087.435,6177.633v85.053" transform="translate(-1709.634 -5764.5)" fill="none" stroke="#fff" stroke-linecap="round" stroke-width="5"/>
      <path id="Path_67-6" data-name="Path 67" d="M2087.435,6177.629v50.439" transform="translate(-1969 -5747.175)" fill="none" stroke="#fff" stroke-linecap="round" stroke-width="5"/>
      <path id="Path_79" data-name="Path 79" d="M2087.435,6177.629v50.439" transform="translate(-1722.634 -5747.194)" fill="none" stroke="#fff" stroke-linecap="round" stroke-width="5"/>
      <path id="Path_67-7" data-name="Path 67" d="M2087.435,6177.631v111.648" transform="translate(-1956 -5777.779)" fill="none" stroke="#fff" stroke-linecap="round" stroke-width="5"/>
      <path id="Path_75" data-name="Path 75" d="M2087.435,6177.631v111.648" transform="translate(-1735.634 -5777.799)" fill="none" stroke="#fff" stroke-linecap="round" stroke-width="5"/>
      <path id="Path_67-8" data-name="Path 67" d="M2087.435,6177.63v102.529" transform="translate(-1943 -5773.22)" fill="none" stroke="#fff" stroke-linecap="round" stroke-width="5"/>
      <path id="Path_74" data-name="Path 74" d="M2087.435,6177.63v102.529" transform="translate(-1748.634 -5773.239)" fill="none" stroke="#fff" stroke-linecap="round" stroke-width="5"/>
      <path id="Path_67-9" data-name="Path 67" d="M2087.435,6177.633v161.055" transform="translate(-1930 -5802.481)" fill="none" stroke="#fff" stroke-linecap="round" stroke-width="5"/>
      <path id="Path_73" data-name="Path 73" d="M2087.435,6177.633v161.055" transform="translate(-1761.634 -5802.501)" fill="none" stroke="#fff" stroke-linecap="round" stroke-width="5"/>
      <path id="Path_67-10" data-name="Path 67" d="M2087.435,6177.633v125.331" transform="translate(-1917 -5784.623)" fill="none" stroke="#fff" stroke-linecap="round" stroke-width="5"/>
      <path id="Path_72" data-name="Path 72" d="M2087.435,6177.633v125.331" transform="translate(-1774.634 -5784.642)" fill="none" stroke="#fff" stroke-linecap="round" stroke-width="5"/>
      <path id="Path_67-11" data-name="Path 67" d="M2087.435,6177.625v148.9" transform="translate(-1904 -5796.401)" fill="none" stroke="#fff" stroke-linecap="round" stroke-width="5"/>
      <path id="Path_71" data-name="Path 71" d="M2087.435,6177.625v148.9" transform="translate(-1787.634 -5796.421)" fill="none" stroke="#fff" stroke-linecap="round" stroke-width="5"/>
      <path id="Path_67-12" data-name="Path 67" d="M2087.435,6177.625V6357.68" transform="translate(-1891 -5811.982)" fill="none" stroke="#fff" stroke-linecap="round" stroke-width="5"/>
      <path id="Path_70" data-name="Path 70" d="M2087.435,6177.625V6357.68" transform="translate(-1800.634 -5812.002)" fill="none" stroke="#fff" stroke-linecap="round" stroke-width="5"/>
      <path id="Path_67-13" data-name="Path 67" d="M2087.435,6177.625v205.141" transform="translate(-1878 -5824.523)" fill="none" stroke="#fff" stroke-linecap="round" stroke-width="5"/>
      <path id="Path_69" data-name="Path 69" d="M2087.435,6177.625v205.141" transform="translate(-1813.634 -5824.543)" fill="none" stroke="#fff" stroke-linecap="round" stroke-width="5"/>
      <path id="Path_67-14" data-name="Path 67" d="M2087.435,6177.641v199.645" transform="translate(-1865 -5821.78)" fill="none" stroke="#fff" stroke-linecap="round" stroke-width="5"/>
      <path id="Path_68" data-name="Path 68" d="M2087.435,6177.641v199.605" transform="translate(-1826.634 -5821.78)" fill="none" stroke="#fff" stroke-linecap="round" stroke-width="5"/>
      <path id="Path_67-15" data-name="Path 67" d="M2087.435,6177.625v216.547" transform="translate(-1852 -5830.228)" fill="none" stroke="#fff" stroke-linecap="round" stroke-width="5"/>
      <path id="Path_82" data-name="Path 82" d="M2087.435,6177.625v222.118" transform="translate(-1839.634 -5833.013)" fill="none" stroke="#fff" stroke-linecap="round" stroke-width="5"/>
    </g>
  </g>
</svg>
